<svg width="17" height="11" viewBox="0 0 17 11" fill="none" xmlns="http://www.w3.org/2000/svg">
<path d="M6.70329 11C6.53584 11.0003 6.36998 10.9692 6.21521 10.9084C6.06044 10.8477 5.91981 10.7585 5.80141 10.6459L0.390078 5.50073C0.26816 5.38895 0.170881 5.25521 0.103917 5.10731C0.0369537 4.95941 0.00164666 4.80031 5.62372e-05 4.6393C-0.00153419 4.47829 0.0306238 4.31859 0.094654 4.16952C0.158684 4.02046 0.253304 3.885 0.372993 3.77106C0.492682 3.65713 0.635043 3.56699 0.791769 3.50591C0.948495 3.44484 1.11645 3.41404 1.28583 3.41533C1.45521 3.41661 1.62262 3.44995 1.7783 3.51339C1.93399 3.57684 2.07482 3.66912 2.19258 3.78486L6.70202 8.0715L14.8216 0.355546C15.0608 0.128007 15.3852 0.000113779 15.7236 7.58804e-08C16.062 -0.000113628 16.3866 0.127562 16.626 0.354939C16.8653 0.582317 16.9999 0.890771 17 1.21245C17.0001 1.53412 16.8658 1.84266 16.6266 2.0702L7.60518 10.6459C7.48678 10.7585 7.34615 10.8477 7.19138 10.9084C7.03661 10.9692 6.87074 11.0003 6.70329 11V11Z" fill="white"/>
</svg>
