<svg width="20" height="20" viewBox="0 0 20 20" fill="none" xmlns="http://www.w3.org/2000/svg">
<path d="M10.9167 10H12.75C12.9932 10 13.2263 10.0966 13.3982 10.2685C13.5701 10.4404 13.6667 10.6736 13.6667 10.9167C13.6667 11.1598 13.5701 11.393 13.3982 11.5649C13.2263 11.7368 12.9932 11.8333 12.75 11.8333H10C9.75693 11.8333 9.52377 11.7368 9.35186 11.5649C9.17996 11.393 9.08338 11.1598 9.08338 10.9167V6.33334C9.08338 6.09023 9.17996 5.85707 9.35186 5.68516C9.52377 5.51325 9.75693 5.41668 10 5.41668C10.2432 5.41668 10.4763 5.51325 10.6482 5.68516C10.8201 5.85707 10.9167 6.09023 10.9167 6.33334V10ZM17.9109 8.56818C18.2751 9.79893 18.3472 11.0977 18.1213 12.3612C17.8954 13.6247 17.3779 14.818 16.6098 15.8464C15.8417 16.8747 14.8443 17.7096 13.6968 18.2848C12.5494 18.8599 11.2836 19.1594 10 19.1594C8.71653 19.1594 7.45071 18.8599 6.30326 18.2848C5.15582 17.7096 4.15839 16.8747 3.3903 15.8464C2.62222 14.818 2.10466 13.6247 1.87879 12.3612C1.65292 11.0977 1.72497 9.79893 2.08921 8.56818C1.65828 8.11335 1.32518 7.575 1.11049 6.98638C0.895792 6.39776 0.804062 5.77137 0.840965 5.14591C0.877867 4.52044 1.04262 3.90919 1.32504 3.3499C1.60746 2.79061 2.00155 2.29516 2.48298 1.89416C2.9644 1.49316 3.52293 1.19513 4.12406 1.01847C4.72519 0.841815 5.35616 0.790284 5.97799 0.867063C6.59982 0.943841 7.19931 1.1473 7.73941 1.46487C8.27952 1.78244 8.74879 2.20737 9.11821 2.71343C9.70445 2.65112 10.2956 2.65112 10.8819 2.71343C11.2513 2.20737 11.7206 1.78244 12.2607 1.46487C12.8008 1.1473 13.4003 0.943841 14.0221 0.867063C14.6439 0.790284 15.2749 0.841815 15.876 1.01847C16.4772 1.19513 17.0357 1.49316 17.5171 1.89416C17.9985 2.29516 18.3926 2.79061 18.6751 3.3499C18.9575 3.90919 19.1222 4.52044 19.1591 5.14591C19.196 5.77137 19.1043 6.39776 18.8896 6.98638C18.6749 7.575 18.3418 8.11335 17.9109 8.56818ZM17.051 6.63126C17.3241 6.07774 17.403 5.44847 17.2751 4.84467C17.1471 4.24088 16.8198 3.69767 16.3458 3.30245C15.8717 2.90722 15.2785 2.68296 14.6615 2.66574C14.0446 2.64852 13.4397 2.83934 12.9444 3.20751C14.6543 3.86307 16.0986 5.06716 17.051 6.63126ZM7.0548 3.20751C6.55943 2.83934 5.95461 2.64852 5.33766 2.66574C4.7207 2.68296 4.12747 2.90722 3.65341 3.30245C3.17935 3.69767 2.85203 4.24088 2.7241 4.84467C2.59617 5.44847 2.67508 6.07774 2.94813 6.63126C3.9006 5.06716 5.34486 3.86307 7.0548 3.20751ZM10 17.3333C10.8427 17.3333 11.6771 17.1674 12.4556 16.8449C13.2341 16.5224 13.9415 16.0498 14.5373 15.4539C15.1332 14.8581 15.6058 14.1507 15.9283 13.3722C16.2507 12.5937 16.4167 11.7593 16.4167 10.9167C16.4167 10.074 16.2507 9.23963 15.9283 8.46113C15.6058 7.68262 15.1332 6.97525 14.5373 6.37941C13.9415 5.78357 13.2341 5.31092 12.4556 4.98845C11.6771 4.66598 10.8427 4.50001 10 4.50001C8.29824 4.50001 6.66613 5.17605 5.46278 6.37941C4.25942 7.58277 3.58338 9.21487 3.58338 10.9167C3.58338 12.6185 4.25942 14.2506 5.46278 15.4539C6.66613 16.6573 8.29824 17.3333 10 17.3333Z" fill="white"/>
</svg>
