<svg width="20" height="20" viewBox="0 0 20 20" fill="none" xmlns="http://www.w3.org/2000/svg">
<path d="M6 0H14C15.5913 0 17.1174 0.632141 18.2426 1.75736C19.3679 2.88258 20 4.4087 20 6V14C20 15.5913 19.3679 17.1174 18.2426 18.2426C17.1174 19.3679 15.5913 20 14 20H6C4.4087 20 2.88258 19.3679 1.75736 18.2426C0.632141 17.1174 0 15.5913 0 14L0 6C0 4.4087 0.632141 2.88258 1.75736 1.75736C2.88258 0.632141 4.4087 0 6 0V0ZM6 2C4.93913 2 3.92172 2.42143 3.17157 3.17157C2.42143 3.92172 2 4.93913 2 6V14C2 15.0609 2.42143 16.0783 3.17157 16.8284C3.92172 17.5786 4.93913 18 6 18H14C15.0609 18 16.0783 17.5786 16.8284 16.8284C17.5786 16.0783 18 15.0609 18 14V6C18 4.93913 17.5786 3.92172 16.8284 3.17157C16.0783 2.42143 15.0609 2 14 2H6ZM12 9H15C15.2652 9 15.5196 9.10536 15.7071 9.29289C15.8946 9.48043 16 9.73478 16 10C16 10.2652 15.8946 10.5196 15.7071 10.7071C15.5196 10.8946 15.2652 11 15 11H12C11.7348 11 11.4804 10.8946 11.2929 10.7071C11.1054 10.5196 11 10.2652 11 10C11 9.73478 11.1054 9.48043 11.2929 9.29289C11.4804 9.10536 11.7348 9 12 9ZM10 13H15C15.2652 13 15.5196 13.1054 15.7071 13.2929C15.8946 13.4804 16 13.7348 16 14C16 14.2652 15.8946 14.5196 15.7071 14.7071C15.5196 14.8946 15.2652 15 15 15H10C9.73478 15 9.48043 14.8946 9.29289 14.7071C9.10536 14.5196 9 14.2652 9 14C9 13.7348 9.10536 13.4804 9.29289 13.2929C9.48043 13.1054 9.73478 13 10 13ZM10 5H15C15.2652 5 15.5196 5.10536 15.7071 5.29289C15.8946 5.48043 16 5.73478 16 6C16 6.26522 15.8946 6.51957 15.7071 6.70711C15.5196 6.89464 15.2652 7 15 7H10C9.73478 7 9.48043 6.89464 9.29289 6.70711C9.10536 6.51957 9 6.26522 9 6C9 5.73478 9.10536 5.48043 9.29289 5.29289C9.48043 5.10536 9.73478 5 10 5ZM5.828 10.243L7.95 8.12C8.04291 8.02715 8.1532 7.95352 8.27457 7.9033C8.39593 7.85308 8.526 7.82725 8.65735 7.8273C8.7887 7.82734 8.91876 7.85326 9.04009 7.90357C9.16142 7.95388 9.27166 8.02759 9.3645 8.1205C9.45735 8.21341 9.53098 8.3237 9.5812 8.44507C9.63142 8.56643 9.65725 8.6965 9.6572 8.82785C9.65716 8.9592 9.63124 9.08926 9.58093 9.21059C9.53062 9.33192 9.45691 9.44215 9.364 9.535L6.536 12.363C6.44313 12.456 6.33284 12.5297 6.21144 12.5801C6.09004 12.6304 5.95992 12.6563 5.8285 12.6563C5.69708 12.6563 5.56696 12.6304 5.44556 12.5801C5.32416 12.5297 5.21387 12.456 5.121 12.363L3.707 10.95C3.52484 10.7614 3.42405 10.5088 3.42633 10.2466C3.4286 9.9844 3.53377 9.73359 3.71918 9.54818C3.90459 9.36277 4.1554 9.2576 4.4176 9.25533C4.6798 9.25305 4.9324 9.35384 5.121 9.536L5.828 10.243Z" fill="white"/>
</svg>
