<svg width="21" height="21" viewBox="0 0 21 21" fill="none" xmlns="http://www.w3.org/2000/svg">
<path d="M11.6498 10.4125L14.743 7.31846C14.8265 7.23775 14.8932 7.1412 14.939 7.03444C14.9849 6.92769 15.009 6.81287 15.0101 6.69669C15.0111 6.58051 14.9889 6.46529 14.9449 6.35775C14.9009 6.25022 14.836 6.15252 14.7538 6.07037C14.6717 5.98821 14.574 5.92324 14.4664 5.87925C14.3589 5.83525 14.2437 5.81311 14.1275 5.81412C14.0113 5.81513 13.8965 5.83927 13.7897 5.88513C13.683 5.93098 13.5864 5.99764 13.5057 6.08121L10.4117 9.17434L7.31859 6.08121C7.23787 5.99764 7.14132 5.93098 7.03456 5.88513C6.92781 5.83927 6.81299 5.81513 6.69681 5.81412C6.58063 5.81311 6.46541 5.83525 6.35788 5.87925C6.25034 5.92324 6.15265 5.98821 6.07049 6.07037C5.98833 6.15252 5.92336 6.25022 5.87937 6.35775C5.83537 6.46529 5.81323 6.58051 5.81424 6.69669C5.81525 6.81287 5.83939 6.92769 5.88525 7.03444C5.93111 7.1412 5.99776 7.23775 6.08134 7.31846L9.17446 10.4116L6.08134 13.5056C5.99776 13.5863 5.93111 13.6829 5.88525 13.7896C5.83939 13.8964 5.81525 14.0112 5.81424 14.1274C5.81323 14.2435 5.83537 14.3588 5.87937 14.4663C5.92336 14.5738 5.98833 14.6715 6.07049 14.7537C6.15265 14.8358 6.25034 14.9008 6.35788 14.9448C6.46541 14.9888 6.58063 15.0109 6.69681 15.0099C6.81299 15.0089 6.92781 14.9848 7.03456 14.9389C7.14132 14.8931 7.23787 14.8264 7.31859 14.7428L10.4117 11.6497L13.5057 14.7428C13.5864 14.8264 13.683 14.8931 13.7897 14.9389C13.8965 14.9848 14.0113 15.0089 14.1275 15.0099C14.2437 15.0109 14.3589 14.9888 14.4664 14.9448C14.574 14.9008 14.6717 14.8358 14.7538 14.7537C14.836 14.6715 14.9009 14.5738 14.9449 14.4663C14.9889 14.3588 15.0111 14.2435 15.0101 14.1274C15.009 14.0112 14.9849 13.8964 14.939 13.7896C14.8932 13.6829 14.8265 13.5863 14.743 13.5056L11.6498 10.4116V10.4125Z" fill="#C74747"/>
</svg>
