<svg width="15" height="17" viewBox="0 0 15 17" fill="none" xmlns="http://www.w3.org/2000/svg">
<path d="M1.74984 0.833344C2.004 0.833344 2.24776 0.93431 2.42748 1.11403C2.6072 1.29376 2.70817 1.53751 2.70817 1.79168V15.2083C2.70817 15.4625 2.6072 15.7063 2.42748 15.886C2.24776 16.0657 2.004 16.1667 1.74984 16.1667C1.49567 16.1667 1.25192 16.0657 1.07219 15.886C0.892471 15.7063 0.791504 15.4625 0.791504 15.2083V1.79168C0.791504 1.53751 0.892471 1.29376 1.07219 1.11403C1.25192 0.93431 1.49567 0.833344 1.74984 0.833344V0.833344ZM13.2498 4.66668C13.504 4.66668 13.7478 4.76764 13.9275 4.94737C14.1072 5.12709 14.2082 5.37084 14.2082 5.62501V15.2083C14.2082 15.4625 14.1072 15.7063 13.9275 15.886C13.7478 16.0657 13.504 16.1667 13.2498 16.1667C12.9957 16.1667 12.7519 16.0657 12.5722 15.886C12.3925 15.7063 12.2915 15.4625 12.2915 15.2083V5.62501C12.2915 5.37084 12.3925 5.12709 12.5722 4.94737C12.7519 4.76764 12.9957 4.66668 13.2498 4.66668ZM7.49984 8.50001C7.754 8.50001 7.99776 8.60098 8.17748 8.7807C8.3572 8.96042 8.45817 9.20418 8.45817 9.45834V15.2083C8.45817 15.4625 8.3572 15.7063 8.17748 15.886C7.99776 16.0657 7.754 16.1667 7.49984 16.1667C7.24567 16.1667 7.00192 16.0657 6.82219 15.886C6.64247 15.7063 6.5415 15.4625 6.5415 15.2083V9.45834C6.5415 9.20418 6.64247 8.96042 6.82219 8.7807C7.00192 8.60098 7.24567 8.50001 7.49984 8.50001Z" fill="white"/>
</svg>
